<svg width="92" height="92" viewBox="0 0 92 92" fill="none" xmlns="http://www.w3.org/2000/svg">
<path fill-rule="evenodd" clip-rule="evenodd" d="M46 92C71.4035 92 92 71.4035 92 46C92 20.5965 71.4035 0 46 0C20.5965 0 0 20.5965 0 46C0 71.4035 20.5965 92 46 92ZM28.75 38.3333C29.5051 38.3333 30.2528 38.1846 30.9504 37.8956C31.6481 37.6067 32.2819 37.1831 32.8159 36.6492C33.3498 36.1153 33.7733 35.4814 34.0623 34.7838C34.3513 34.0861 34.5 33.3384 34.5 32.5833C34.5 31.8282 34.3513 31.0805 34.0623 30.3829C33.7733 29.6853 33.3498 29.0514 32.8159 28.5175C32.2819 27.9835 31.6481 27.56 30.9504 27.271C30.2528 26.9821 29.5051 26.8333 28.75 26.8333C27.225 26.8333 25.7625 27.4391 24.6841 28.5175C23.6058 29.5958 23 31.0583 23 32.5833C23 34.1083 23.6058 35.5709 24.6841 36.6492C25.7625 37.7275 27.225 38.3333 28.75 38.3333ZM63.25 38.3333C64.0051 38.3333 64.7528 38.1846 65.4504 37.8956C66.1481 37.6067 66.7819 37.1831 67.3159 36.6492C67.8498 36.1153 68.2733 35.4814 68.5623 34.7838C68.8513 34.0861 69 33.3384 69 32.5833C69 31.8282 68.8513 31.0805 68.5623 30.3829C68.2733 29.6853 67.8498 29.0514 67.3159 28.5175C66.7819 27.9835 66.1481 27.56 65.4504 27.271C64.7528 26.9821 64.0051 26.8333 63.25 26.8333C61.725 26.8333 60.2625 27.4391 59.1841 28.5175C58.1058 29.5958 57.5 31.0583 57.5 32.5833C57.5 34.1083 58.1058 35.5709 59.1841 36.6492C60.2625 37.7275 61.725 38.3333 63.25 38.3333ZM27.9201 65.9563C27.9213 65.9563 27.9225 65.9568 27.9233 65.9577C28.2025 66.2519 28.5868 66.4236 28.9922 66.435C29.3983 66.4465 29.7923 66.2964 30.0878 66.0177C33.7995 62.4972 38.373 60.0166 43.3481 58.8255C48.3231 57.6344 53.5241 57.7748 58.4277 59.2327C58.6218 59.2937 58.8262 59.3155 59.0289 59.2967C59.2315 59.278 59.4285 59.219 59.6081 59.1234C59.7878 59.0277 59.9466 58.8973 60.0753 58.7396C60.204 58.5819 60.3001 58.4002 60.3578 58.2051C60.4156 58.0099 60.4339 57.8052 60.4117 57.6029C60.3896 57.4005 60.3273 57.2046 60.2287 57.0266C60.13 56.8486 59.9969 56.692 59.8371 56.566C59.6773 56.4399 59.4939 56.347 59.2978 56.2925C53.8789 54.682 48.1314 54.5271 42.6336 55.8434C37.1358 57.1596 32.0816 59.9006 27.9795 63.7905C27.6845 64.0697 27.5123 64.4547 27.5008 64.8607C27.4893 65.2662 27.6389 65.6596 27.9168 65.9549C27.9177 65.9558 27.9189 65.9563 27.9201 65.9563Z" fill="url(#paint0_linear_11137_250)"/>
<defs>
<linearGradient id="paint0_linear_11137_250" x1="0" y1="0" x2="111.135" y2="14.8781" gradientUnits="userSpaceOnUse">
<stop stop-color="#2F57FF"/>
<stop offset="1" stop-color="#2FA3FF"/>
</linearGradient>
</defs>
</svg>
