<svg width="32" height="50" viewBox="0 0 32 50" fill="none" xmlns="http://www.w3.org/2000/svg">
<path fill-rule="evenodd" clip-rule="evenodd" d="M21.8949 0.296913C22.2096 -0.0811166 22.8192 0.178258 22.7651 0.667104C21.1737 15.0253 20.0557 12.2869 31.2127 21.5224C31.5927 21.8369 31.3323 22.4491 30.8421 22.3933C16.4362 20.7542 19.2021 19.6504 9.94749 30.7424C9.63242 31.12 9.02313 30.86 9.0778 30.3712C10.6819 16.0303 11.7876 18.7737 0.627845 9.51688C0.248134 9.20192 0.509381 8.59 0.999489 8.64635C15.3981 10.302 12.657 11.3958 21.8949 0.296913ZM20.0042 28.8588C20.3182 28.4801 20.9288 28.741 20.8723 29.2296C19.7967 38.5302 19.1765 37.0008 26.4345 42.9691C26.8154 43.2824 26.5548 43.8953 26.0649 43.8384C16.725 42.753 18.2668 42.1446 12.2967 49.3533C11.9831 49.7318 11.3728 49.4721 11.4283 48.9836C12.4845 39.6802 13.105 41.2103 5.85239 35.2243C5.47205 34.9103 5.7337 34.2979 6.22346 34.3557C15.5557 35.4576 14.0235 36.0698 20.0042 28.8588Z" fill="url(#paint0_linear_11137_251)"/>
<defs>
<linearGradient id="paint0_linear_11137_251" x1="6.38672" y1="-8" x2="49.1949" y2="15.692" gradientUnits="userSpaceOnUse">
<stop stop-color="#2F57FF"/>
<stop offset="1" stop-color="#2FA3FF"/>
</linearGradient>
</defs>
</svg>
