<svg width="41" height="89" viewBox="0 0 41 89" fill="none" xmlns="http://www.w3.org/2000/svg">
<path fill-rule="evenodd" clip-rule="evenodd" d="M13.8983 1.99119C13.9784 1.81188 14.2454 1.84509 14.2791 2.03856C15.9465 11.6119 14.5515 9.85812 23.5379 13.8098C23.7189 13.8894 23.6853 14.1586 23.4902 14.1912C13.8237 15.8055 15.5849 14.451 11.6729 23.3258C11.5937 23.5056 11.3264 23.4735 11.2919 23.28C9.58467 13.7022 10.9786 15.4565 1.98769 11.5449C1.80643 11.4661 1.83898 11.1967 2.03381 11.1634C11.6933 9.50791 9.93007 10.8752 13.8983 1.99119Z" fill="url(#paint0_linear_11137_252)"/>
<path fill-rule="evenodd" clip-rule="evenodd" d="M28.8985 64.9912C28.9786 64.8119 29.2457 64.8451 29.2794 65.0386C30.9468 74.6119 29.5518 72.8581 38.5381 76.8098C38.7191 76.8894 38.6855 77.1586 38.4905 77.1912C28.8239 78.8055 30.5851 77.451 26.6732 86.3258C26.5939 86.5056 26.3266 86.4735 26.2921 86.28C24.5849 76.7022 25.9788 78.4565 16.9879 74.5449C16.8067 74.4661 16.8392 74.1967 17.0341 74.1634C26.6935 72.5079 24.9303 73.8752 28.8985 64.9912Z" fill="url(#paint1_linear_11137_252)"/>
<defs>
<linearGradient id="paint0_linear_11137_252" x1="2.75781" y1="0" x2="29.8003" y2="7.0877" gradientUnits="userSpaceOnUse">
<stop stop-color="#2F57FF"/>
<stop offset="1" stop-color="#2FA3FF"/>
</linearGradient>
<linearGradient id="paint1_linear_11137_252" x1="17.7581" y1="63" x2="44.8006" y2="70.0877" gradientUnits="userSpaceOnUse">
<stop stop-color="#2F57FF"/>
<stop offset="1" stop-color="#2FA3FF"/>
</linearGradient>
</defs>
</svg>
