<svg width="71" height="50" viewBox="0 0 71 50" fill="none" xmlns="http://www.w3.org/2000/svg">
<path d="M69.4845 7.80753C68.6683 4.73436 66.2637 2.3141 63.2099 1.49274C57.676 0 35.4836 0 35.4836 0C35.4836 0 13.2916 0 7.75733 1.49274C4.70351 2.3141 2.29838 4.73436 1.48276 7.80753C0 13.3778 0 25 0 25C0 25 0 36.6216 1.48276 42.1925C2.29838 45.2659 4.70351 47.6856 7.75703 48.5079C13.2913 50 35.4833 50 35.4833 50C35.4833 50 57.6757 50 63.2096 48.5079C66.2634 47.6859 68.668 45.2659 69.4842 42.1928C70.9673 36.6219 70.9673 25.0003 70.9673 25.0003C70.9673 25.0003 70.9673 13.3781 69.4842 7.80783" fill="#FF0000"/>
<path d="M28.2256 35.5522L46.7738 25.0008L28.2256 14.4482V35.5522Z" fill="white"/>
</svg>
